<svg xmlns="http://www.w3.org/2000/svg" viewBox="0 0 512 512">
  <!-- Fondo redondeado - Azul marino clásico -->
  <rect width="512" height="512" rx="100" fill="#2c3e50"/>
  
  <!-- Cuerpo con camisa y tirantes -->
  <ellipse cx="256" cy="480" rx="130" ry="70" fill="#ecf0f1"/>
  <!-- Tirantes -->
  <path d="M200 410 L220 500" stroke="#c0392b" stroke-width="18" stroke-linecap="round"/>
  <path d="M312 410 L292 500" stroke="#c0392b" stroke-width="18" stroke-linecap="round"/>
  
  <!-- Cuello camisa -->
  <path d="M220 380 L256 410 L292 380" fill="#ecf0f1" stroke="#ecf0f1" stroke-width="8"/>
  
  <!-- Cabeza -->
  <ellipse cx="256" cy="260" rx="82" ry="92" fill="#fad7a0"/>
  
  <!-- Orejas -->
  <ellipse cx="174" cy="265" rx="14" ry="20" fill="#fad7a0"/>
  <ellipse cx="338" cy="265" rx="14" ry="20" fill="#fad7a0"/>
  
  <!-- Gorra newsboy - Marrón tweed -->
  <ellipse cx="256" cy="175" rx="92" ry="55" fill="#8b7355"/>
  <path d="M164 175 Q170 125 256 115 Q342 125 348 175 Q346 195 256 205 Q166 195 164 175 Z" fill="#6b5344"/>
  <circle cx="256" cy="120" r="7" fill="#5d4e37"/>
  <!-- Visera -->
  <path d="M165 188 Q125 195 120 215 Q128 232 185 222 Q178 205 165 188 Z" fill="#6b5344"/>
  <ellipse cx="256" cy="195" rx="95" ry="16" fill="#8b7355"/>
  
  <!-- Pelo pelirrojo asomando -->
  <path d="M178 205 Q182 222 175 232" stroke="#d35400" stroke-width="6" fill="none" stroke-linecap="round"/>
  <path d="M190 210 Q192 225 187 235" stroke="#d35400" stroke-width="5" fill="none" stroke-linecap="round"/>
  
  <!-- Cejas -->
  <path d="M198 235 Q218 227 238 233" stroke="#a04000" stroke-width="6" fill="none" stroke-linecap="round"/>
  <path d="M274 233 Q294 227 314 235" stroke="#a04000" stroke-width="6" fill="none" stroke-linecap="round"/>
  
  <!-- Ojos -->
  <ellipse cx="218" cy="260" rx="16" ry="20" fill="white"/>
  <ellipse cx="294" cy="260" rx="16" ry="20" fill="white"/>
  <circle cx="222" cy="262" r="9" fill="#2c3e50"/>
  <circle cx="298" cy="262" r="9" fill="#2c3e50"/>
  <circle cx="224" cy="259" r="3" fill="white"/>
  <circle cx="300" cy="259" r="3" fill="white"/>
  
  <!-- Pecas -->
  <circle cx="200" cy="290" r="3" fill="#d35400" opacity="0.5"/>
  <circle cx="212" cy="298" r="2.5" fill="#d35400" opacity="0.5"/>
  <circle cx="195" cy="302" r="2" fill="#d35400" opacity="0.5"/>
  <circle cx="312" cy="290" r="3" fill="#d35400" opacity="0.5"/>
  <circle cx="300" cy="298" r="2.5" fill="#d35400" opacity="0.5"/>
  <circle cx="317" cy="302" r="2" fill="#d35400" opacity="0.5"/>
  
  <!-- Nariz -->
  <ellipse cx="256" cy="295" rx="10" ry="12" fill="#f0c987"/>
  
  <!-- Mejillas -->
  <ellipse cx="192" cy="305" rx="15" ry="10" fill="#e74c3c" opacity="0.3"/>
  <ellipse cx="320" cy="305" rx="15" ry="10" fill="#e74c3c" opacity="0.3"/>
  
  <!-- Sonrisa -->
  <path d="M220 330 Q256 360 292 330" stroke="#a04000" stroke-width="5" fill="none" stroke-linecap="round"/>
  
  <!-- Brazo lanzando -->
  <path d="M380 450 Q410 380 430 300 Q445 230 455 165" stroke="#fad7a0" stroke-width="28" fill="none" stroke-linecap="round"/>
  <!-- Manga camisa -->
  <path d="M375 440 Q395 400 410 350" stroke="#ecf0f1" stroke-width="34" fill="none" stroke-linecap="round"/>
  
  <!-- Mano -->
  <circle cx="457" cy="160" r="22" fill="#fad7a0"/>
  <circle cx="472" cy="148" r="9" fill="#fad7a0"/>
  <circle cx="468" cy="172" r="8" fill="#fad7a0"/>
  
  <!-- Periódico -->
  <g transform="translate(350, 50) rotate(22)">
    <rect x="0" y="0" width="85" height="60" rx="2" fill="#fafafa"/>
    <rect x="6" y="6" width="73" height="9" rx="1" fill="#2c3e50"/>
    <rect x="6" y="20" width="48" height="3.5" fill="#7f8c8d"/>
    <rect x="6" y="27" width="55" height="3.5" fill="#7f8c8d"/>
    <rect x="6" y="34" width="40" height="3.5" fill="#7f8c8d"/>
    <rect x="6" y="41" width="52" height="3.5" fill="#7f8c8d"/>
    <rect x="58" y="20" width="20" height="25" fill="#bdc3c7"/>
  </g>
  
  <!-- Líneas de movimiento -->
  <g stroke="#ecf0f1" stroke-width="3" stroke-linecap="round" opacity="0.5">
    <path d="M465 75 L485 65"/>
    <path d="M472 98 L492 95"/>
    <path d="M468 120 L488 125"/>
  </g>
</svg>
