<svg xmlns="http://www.w3.org/2000/svg" viewBox="0 0 512 512">
  <!-- Fondo - Verde botella vintage -->
  <rect width="512" height="512" rx="100" fill="#1e3d32"/>
  
  <!-- Cuerpo con jersey de cuello -->
  <ellipse cx="256" cy="480" rx="130" ry="70" fill="#c0392b"/>
  <!-- Cuello del jersey -->
  <ellipse cx="256" cy="395" rx="45" ry="20" fill="#a93226"/>
  
  <!-- Cabeza -->
  <ellipse cx="256" cy="260" rx="82" ry="92" fill="#fad7a0"/>
  
  <!-- Orejas -->
  <ellipse cx="174" cy="265" rx="14" ry="20" fill="#fad7a0"/>
  <ellipse cx="338" cy="265" rx="14" ry="20" fill="#fad7a0"/>
  
  <!-- Gorra newsboy - Gris carbón -->
  <ellipse cx="256" cy="175" rx="92" ry="55" fill="#5d6d7e"/>
  <path d="M164 175 Q170 125 256 115 Q342 125 348 175 Q346 195 256 205 Q166 195 164 175 Z" fill="#4a5568"/>
  <circle cx="256" cy="120" r="7" fill="#3d4852"/>
  <path d="M165 188 Q125 195 120 215 Q128 232 185 222 Q178 205 165 188 Z" fill="#4a5568"/>
  <ellipse cx="256" cy="195" rx="95" ry="16" fill="#5d6d7e"/>
  
  <!-- Pelo rubio/castaño claro -->
  <path d="M178 205 Q182 222 175 232" stroke="#d4ac6e" stroke-width="6" fill="none" stroke-linecap="round"/>
  <path d="M190 210 Q192 225 187 235" stroke="#d4ac6e" stroke-width="5" fill="none" stroke-linecap="round"/>
  <path d="M330 208 Q333 222 338 230" stroke="#d4ac6e" stroke-width="5" fill="none" stroke-linecap="round"/>
  
  <!-- Cejas -->
  <path d="M198 235 Q218 227 238 233" stroke="#8b7355" stroke-width="6" fill="none" stroke-linecap="round"/>
  <path d="M274 233 Q294 227 314 235" stroke="#8b7355" stroke-width="6" fill="none" stroke-linecap="round"/>
  
  <!-- Ojos -->
  <ellipse cx="218" cy="260" rx="16" ry="20" fill="white"/>
  <ellipse cx="294" cy="260" rx="16" ry="20" fill="white"/>
  <circle cx="222" cy="262" r="9" fill="#1e3d32"/>
  <circle cx="298" cy="262" r="9" fill="#1e3d32"/>
  <circle cx="224" cy="259" r="3" fill="white"/>
  <circle cx="300" cy="259" r="3" fill="white"/>
  
  <!-- Nariz -->
  <ellipse cx="256" cy="295" rx="10" ry="12" fill="#f0c987"/>
  
  <!-- Mejillas -->
  <ellipse cx="192" cy="305" rx="15" ry="10" fill="#e67e22" opacity="0.3"/>
  <ellipse cx="320" cy="305" rx="15" ry="10" fill="#e67e22" opacity="0.3"/>
  
  <!-- Sonrisa abierta -->
  <path d="M220 328 Q256 365 292 328" fill="#a04000"/>
  <path d="M225 328 Q256 350 287 328" fill="#2c1810"/>
  
  <!-- Brazo -->
  <path d="M380 450 Q410 380 430 300 Q445 230 455 165" stroke="#fad7a0" stroke-width="28" fill="none" stroke-linecap="round"/>
  <!-- Manga jersey -->
  <path d="M375 440 Q395 400 410 350" stroke="#c0392b" stroke-width="34" fill="none" stroke-linecap="round"/>
  
  <!-- Mano -->
  <circle cx="457" cy="160" r="22" fill="#fad7a0"/>
  <circle cx="472" cy="148" r="9" fill="#fad7a0"/>
  <circle cx="468" cy="172" r="8" fill="#fad7a0"/>
  
  <!-- Periódico -->
  <g transform="translate(350, 50) rotate(22)">
    <rect x="0" y="0" width="85" height="60" rx="2" fill="#f5deb3"/>
    <rect x="6" y="6" width="73" height="9" rx="1" fill="#1e3d32"/>
    <rect x="6" y="20" width="48" height="3.5" fill="#7f8c8d"/>
    <rect x="6" y="27" width="55" height="3.5" fill="#7f8c8d"/>
    <rect x="6" y="34" width="40" height="3.5" fill="#7f8c8d"/>
    <rect x="6" y="41" width="52" height="3.5" fill="#7f8c8d"/>
    <rect x="58" y="20" width="20" height="25" fill="#d4ac6e"/>
  </g>
  
  <!-- Líneas de movimiento -->
  <g stroke="#f5deb3" stroke-width="3" stroke-linecap="round" opacity="0.5">
    <path d="M465 75 L485 65"/>
    <path d="M472 98 L492 95"/>
    <path d="M468 120 L488 125"/>
  </g>
</svg>
